<mxfile host="Electron" agent="Mozilla/5.0 (Windows NT 10.0; Win64; x64) AppleWebKit/537.36 (KHTML, like Gecko) draw.io/27.0.9 Chrome/134.0.6998.205 Electron/35.4.0 Safari/537.36" version="27.0.9">
  <diagram name="Page-1" id="rGFqW4cL4ZWhmywbft53">
    <mxGraphModel dx="3781" dy="1051" grid="1" gridSize="10" guides="1" tooltips="1" connect="1" arrows="1" fold="1" page="1" pageScale="1" pageWidth="850" pageHeight="1100" math="0" shadow="0">
      <root>
        <mxCell id="0" />
        <mxCell id="1" parent="0" />
        <mxCell id="xacsmnz1SWvq0rgQp3L0-67" value="" style="rounded=0;whiteSpace=wrap;html=1;" parent="1" vertex="1">
          <mxGeometry x="-1680" y="740" width="480" height="320" as="geometry" />
        </mxCell>
        <mxCell id="xacsmnz1SWvq0rgQp3L0-59" value="" style="rounded=0;whiteSpace=wrap;html=1;" parent="1" vertex="1">
          <mxGeometry x="-1680" y="380" width="480" height="320" as="geometry" />
        </mxCell>
        <mxCell id="xacsmnz1SWvq0rgQp3L0-42" value="" style="rounded=0;whiteSpace=wrap;html=1;" parent="1" vertex="1">
          <mxGeometry x="-1680" y="40" width="520" height="320" as="geometry" />
        </mxCell>
        <mxCell id="xacsmnz1SWvq0rgQp3L0-1" value="SUMO" style="rounded=0;whiteSpace=wrap;html=1;fillColor=#FF9999;" parent="1" vertex="1">
          <mxGeometry x="-1640" y="440" width="160" height="80" as="geometry" />
        </mxCell>
        <mxCell id="xacsmnz1SWvq0rgQp3L0-2" value="Hardhat" style="rounded=0;whiteSpace=wrap;html=1;fillColor=#FF9999;" parent="1" vertex="1">
          <mxGeometry x="-1500" y="260" width="160" height="80" as="geometry" />
        </mxCell>
        <mxCell id="xacsmnz1SWvq0rgQp3L0-3" value="Zokrates" style="rounded=0;whiteSpace=wrap;html=1;fillColor=#FF9999;" parent="1" vertex="1">
          <mxGeometry x="-680" y="380" width="160" height="80" as="geometry" />
        </mxCell>
        <mxCell id="xacsmnz1SWvq0rgQp3L0-4" value="Veins" style="rounded=0;whiteSpace=wrap;html=1;fillColor=#FF9999;" parent="1" vertex="1">
          <mxGeometry x="-1520" y="600" width="160" height="80" as="geometry" />
        </mxCell>
        <mxCell id="xacsmnz1SWvq0rgQp3L0-5" value="Truffle" style="rounded=0;whiteSpace=wrap;html=1;fillColor=#FF9999;" parent="1" vertex="1">
          <mxGeometry x="-1640" y="100" width="160" height="80" as="geometry" />
        </mxCell>
        <mxCell id="xacsmnz1SWvq0rgQp3L0-7" value="OMNeT++" style="rounded=0;whiteSpace=wrap;html=1;fillColor=#FF9999;" parent="1" vertex="1">
          <mxGeometry x="-1400" y="440" width="160" height="80" as="geometry" />
        </mxCell>
        <mxCell id="xacsmnz1SWvq0rgQp3L0-8" value="Ganache" style="rounded=0;whiteSpace=wrap;html=1;fillColor=#FF9999;" parent="1" vertex="1">
          <mxGeometry x="-1360" y="100" width="160" height="80" as="geometry" />
        </mxCell>
        <mxCell id="xacsmnz1SWvq0rgQp3L0-9" value="Vehicle" style="rounded=0;whiteSpace=wrap;html=1;fillColor=#A680B8;" parent="1" vertex="1">
          <mxGeometry x="-1080" y="380" width="160" height="80" as="geometry" />
        </mxCell>
        <mxCell id="xacsmnz1SWvq0rgQp3L0-10" value="Blockchain" style="rounded=0;whiteSpace=wrap;html=1;fillColor=#A680B8;" parent="1" vertex="1">
          <mxGeometry x="-670" y="940" width="160" height="80" as="geometry" />
        </mxCell>
        <mxCell id="xacsmnz1SWvq0rgQp3L0-11" value="zokrates_interface.py" style="rounded=0;whiteSpace=wrap;html=1;fillColor=#99FFFF;" parent="1" vertex="1">
          <mxGeometry x="-880" y="490" width="160" height="80" as="geometry" />
        </mxCell>
        <mxCell id="xacsmnz1SWvq0rgQp3L0-12" value="RSU" style="rounded=0;whiteSpace=wrap;html=1;fillColor=#A680B8;" parent="1" vertex="1">
          <mxGeometry x="-310" y="600" width="160" height="80" as="geometry" />
        </mxCell>
        <mxCell id="xacsmnz1SWvq0rgQp3L0-13" value="blockchain.py" style="rounded=0;whiteSpace=wrap;html=1;fillColor=#99FFFF;" parent="1" vertex="1">
          <mxGeometry x="-260" y="940" width="160" height="80" as="geometry" />
        </mxCell>
        <mxCell id="xacsmnz1SWvq0rgQp3L0-14" value="Completed ZKP" style="rounded=0;whiteSpace=wrap;html=1;fillColor=#99FF99;" parent="1" vertex="1">
          <mxGeometry x="-680" y="600" width="160" height="80" as="geometry" />
        </mxCell>
        <mxCell id="xacsmnz1SWvq0rgQp3L0-15" value="rsu.py" style="rounded=0;whiteSpace=wrap;html=1;fillColor=#99FFFF;" parent="1" vertex="1">
          <mxGeometry x="-310" y="365" width="160" height="80" as="geometry" />
        </mxCell>
        <mxCell id="xacsmnz1SWvq0rgQp3L0-16" value="vehicle.py" style="rounded=0;whiteSpace=wrap;html=1;fillColor=#99FFFF;" parent="1" vertex="1">
          <mxGeometry x="-1080" y="600" width="160" height="80" as="geometry" />
        </mxCell>
        <mxCell id="xacsmnz1SWvq0rgQp3L0-37" value="OTP" style="rounded=0;whiteSpace=wrap;html=1;fillColor=#99FF99;" parent="1" vertex="1">
          <mxGeometry x="-880" y="700" width="160" height="80" as="geometry" />
        </mxCell>
        <mxCell id="xacsmnz1SWvq0rgQp3L0-38" value="AND" style="html=1;shadow=0;dashed=0;align=center;verticalAlign=middle;shape=mxgraph.arrows2.twoWayArrow;dy=0.65;dx=22;fillColor=#FFE6CC;" parent="1" vertex="1">
          <mxGeometry x="-1470" y="100" width="100" height="80" as="geometry" />
        </mxCell>
        <mxCell id="xacsmnz1SWvq0rgQp3L0-39" value="" style="endArrow=none;html=1;rounded=0;" parent="1" edge="1">
          <mxGeometry width="50" height="50" relative="1" as="geometry">
            <mxPoint x="-1600" y="220" as="sourcePoint" />
            <mxPoint x="-1480" y="220" as="targetPoint" />
          </mxGeometry>
        </mxCell>
        <mxCell id="xacsmnz1SWvq0rgQp3L0-40" value="" style="endArrow=none;html=1;rounded=0;" parent="1" edge="1">
          <mxGeometry width="50" height="50" relative="1" as="geometry">
            <mxPoint x="-1360" y="220" as="sourcePoint" />
            <mxPoint x="-1240" y="220" as="targetPoint" />
          </mxGeometry>
        </mxCell>
        <mxCell id="xacsmnz1SWvq0rgQp3L0-41" value="Or" style="text;html=1;align=center;verticalAlign=middle;whiteSpace=wrap;rounded=0;" parent="1" vertex="1">
          <mxGeometry x="-1450" y="200" width="60" height="40" as="geometry" />
        </mxCell>
        <mxCell id="xacsmnz1SWvq0rgQp3L0-45" value="&lt;b&gt;&lt;font style=&quot;font-size: 18px;&quot;&gt;Blockchain Technology Options&lt;/font&gt;&lt;/b&gt;" style="text;html=1;align=center;verticalAlign=middle;whiteSpace=wrap;rounded=0;" parent="1" vertex="1">
          <mxGeometry x="-1565" y="50" width="290" height="30" as="geometry" />
        </mxCell>
        <mxCell id="xacsmnz1SWvq0rgQp3L0-56" value="Proprietary Coupling/Middleware" style="rounded=0;whiteSpace=wrap;html=1;fillColor=#99FFFF;" parent="1" vertex="1">
          <mxGeometry x="-1520" y="960" width="160" height="80" as="geometry" />
        </mxCell>
        <mxCell id="xacsmnz1SWvq0rgQp3L0-57" value="SUMO" style="rounded=0;whiteSpace=wrap;html=1;fillColor=#FF9999;" parent="1" vertex="1">
          <mxGeometry x="-790" y="120" width="160" height="80" as="geometry" />
        </mxCell>
        <mxCell id="xacsmnz1SWvq0rgQp3L0-60" value="&lt;b&gt;&lt;font style=&quot;font-size: 18px;&quot;&gt;Network Sim Integration Option 1&lt;/font&gt;&lt;/b&gt;" style="text;html=1;align=center;verticalAlign=middle;whiteSpace=wrap;rounded=0;" parent="1" vertex="1">
          <mxGeometry x="-1590" y="390" width="300" height="30" as="geometry" />
        </mxCell>
        <mxCell id="xacsmnz1SWvq0rgQp3L0-61" value="" style="endArrow=none;html=1;rounded=0;entryX=0.25;entryY=1;entryDx=0;entryDy=0;exitX=0.5;exitY=0;exitDx=0;exitDy=0;" parent="1" source="xacsmnz1SWvq0rgQp3L0-62" target="xacsmnz1SWvq0rgQp3L0-1" edge="1">
          <mxGeometry width="50" height="50" relative="1" as="geometry">
            <mxPoint x="-1520" y="680" as="sourcePoint" />
            <mxPoint x="-1470" y="630" as="targetPoint" />
          </mxGeometry>
        </mxCell>
        <mxCell id="xacsmnz1SWvq0rgQp3L0-62" value="Uses" style="rounded=1;whiteSpace=wrap;html=1;fillColor=#FFE6CC;" parent="1" vertex="1">
          <mxGeometry x="-1635" y="545" width="70" height="30" as="geometry" />
        </mxCell>
        <mxCell id="xacsmnz1SWvq0rgQp3L0-63" value="" style="endArrow=none;html=1;rounded=0;entryX=0.5;entryY=1;entryDx=0;entryDy=0;exitX=0;exitY=0.5;exitDx=0;exitDy=0;" parent="1" source="xacsmnz1SWvq0rgQp3L0-4" target="xacsmnz1SWvq0rgQp3L0-62" edge="1">
          <mxGeometry width="50" height="50" relative="1" as="geometry">
            <mxPoint x="-1520" y="680" as="sourcePoint" />
            <mxPoint x="-1470" y="630" as="targetPoint" />
            <Array as="points">
              <mxPoint x="-1600" y="640" />
            </Array>
          </mxGeometry>
        </mxCell>
        <mxCell id="xacsmnz1SWvq0rgQp3L0-64" value="To Integrate With" style="rounded=1;whiteSpace=wrap;html=1;fillColor=#FFE6CC;" parent="1" vertex="1">
          <mxGeometry x="-1372.5" y="545" width="105" height="30" as="geometry" />
        </mxCell>
        <mxCell id="xacsmnz1SWvq0rgQp3L0-65" value="" style="endArrow=none;html=1;rounded=0;entryX=1;entryY=0.5;entryDx=0;entryDy=0;exitX=0.5;exitY=1;exitDx=0;exitDy=0;" parent="1" source="xacsmnz1SWvq0rgQp3L0-64" target="xacsmnz1SWvq0rgQp3L0-4" edge="1">
          <mxGeometry width="50" height="50" relative="1" as="geometry">
            <mxPoint x="-1520" y="680" as="sourcePoint" />
            <mxPoint x="-1470" y="630" as="targetPoint" />
            <Array as="points">
              <mxPoint x="-1320" y="640" />
            </Array>
          </mxGeometry>
        </mxCell>
        <mxCell id="xacsmnz1SWvq0rgQp3L0-66" value="" style="endArrow=none;html=1;rounded=0;entryX=0.5;entryY=0;entryDx=0;entryDy=0;exitX=0.5;exitY=1;exitDx=0;exitDy=0;" parent="1" source="xacsmnz1SWvq0rgQp3L0-7" target="xacsmnz1SWvq0rgQp3L0-64" edge="1">
          <mxGeometry width="50" height="50" relative="1" as="geometry">
            <mxPoint x="-1470" y="570" as="sourcePoint" />
            <mxPoint x="-1420" y="520" as="targetPoint" />
          </mxGeometry>
        </mxCell>
        <mxCell id="xacsmnz1SWvq0rgQp3L0-68" value="SUMO" style="rounded=0;whiteSpace=wrap;html=1;fillColor=#FF9999;" parent="1" vertex="1">
          <mxGeometry x="-1640" y="800" width="160" height="80" as="geometry" />
        </mxCell>
        <mxCell id="xacsmnz1SWvq0rgQp3L0-70" value="Mininet" style="rounded=0;whiteSpace=wrap;html=1;fillColor=#FF9999;" parent="1" vertex="1">
          <mxGeometry x="-1400" y="800" width="160" height="80" as="geometry" />
        </mxCell>
        <mxCell id="xacsmnz1SWvq0rgQp3L0-71" value="&lt;b&gt;&lt;font style=&quot;font-size: 18px;&quot;&gt;Network Sim Integration Option 2&lt;/font&gt;&lt;/b&gt;" style="text;html=1;align=center;verticalAlign=middle;whiteSpace=wrap;rounded=0;" parent="1" vertex="1">
          <mxGeometry x="-1590" y="750" width="300" height="30" as="geometry" />
        </mxCell>
        <mxCell id="xacsmnz1SWvq0rgQp3L0-72" value="" style="endArrow=none;html=1;rounded=0;entryX=0.25;entryY=1;entryDx=0;entryDy=0;exitX=0.5;exitY=0;exitDx=0;exitDy=0;" parent="1" source="xacsmnz1SWvq0rgQp3L0-73" target="xacsmnz1SWvq0rgQp3L0-68" edge="1">
          <mxGeometry width="50" height="50" relative="1" as="geometry">
            <mxPoint x="-1520" y="1040" as="sourcePoint" />
            <mxPoint x="-1470" y="990" as="targetPoint" />
          </mxGeometry>
        </mxCell>
        <mxCell id="xacsmnz1SWvq0rgQp3L0-73" value="Uses" style="rounded=1;whiteSpace=wrap;html=1;fillColor=#FFE6CC;" parent="1" vertex="1">
          <mxGeometry x="-1635" y="905" width="70" height="30" as="geometry" />
        </mxCell>
        <mxCell id="xacsmnz1SWvq0rgQp3L0-74" value="" style="endArrow=none;html=1;rounded=0;entryX=0.5;entryY=1;entryDx=0;entryDy=0;exitX=0;exitY=0.5;exitDx=0;exitDy=0;" parent="1" target="xacsmnz1SWvq0rgQp3L0-73" edge="1">
          <mxGeometry width="50" height="50" relative="1" as="geometry">
            <mxPoint x="-1520" y="1000" as="sourcePoint" />
            <mxPoint x="-1470" y="990" as="targetPoint" />
            <Array as="points">
              <mxPoint x="-1600" y="1000" />
            </Array>
          </mxGeometry>
        </mxCell>
        <mxCell id="xacsmnz1SWvq0rgQp3L0-75" value="To Integrate With" style="rounded=1;whiteSpace=wrap;html=1;fillColor=#FFE6CC;" parent="1" vertex="1">
          <mxGeometry x="-1372.5" y="905" width="105" height="30" as="geometry" />
        </mxCell>
        <mxCell id="xacsmnz1SWvq0rgQp3L0-76" value="" style="endArrow=none;html=1;rounded=0;entryX=1;entryY=0.5;entryDx=0;entryDy=0;exitX=0.5;exitY=1;exitDx=0;exitDy=0;" parent="1" source="xacsmnz1SWvq0rgQp3L0-75" edge="1">
          <mxGeometry width="50" height="50" relative="1" as="geometry">
            <mxPoint x="-1520" y="1040" as="sourcePoint" />
            <mxPoint x="-1360" y="1000" as="targetPoint" />
            <Array as="points">
              <mxPoint x="-1320" y="1000" />
            </Array>
          </mxGeometry>
        </mxCell>
        <mxCell id="xacsmnz1SWvq0rgQp3L0-77" value="" style="endArrow=none;html=1;rounded=0;entryX=0.5;entryY=0;entryDx=0;entryDy=0;exitX=0.5;exitY=1;exitDx=0;exitDy=0;" parent="1" source="xacsmnz1SWvq0rgQp3L0-70" target="xacsmnz1SWvq0rgQp3L0-75" edge="1">
          <mxGeometry width="50" height="50" relative="1" as="geometry">
            <mxPoint x="-1470" y="930" as="sourcePoint" />
            <mxPoint x="-1420" y="880" as="targetPoint" />
          </mxGeometry>
        </mxCell>
        <mxCell id="xacsmnz1SWvq0rgQp3L0-78" value="&lt;div&gt;&lt;span style=&quot;background-color: transparent; color: light-dark(rgb(0, 0, 0), rgb(255, 255, 255));&quot;&gt;Represented By&lt;/span&gt;&lt;/div&gt;" style="rounded=1;whiteSpace=wrap;html=1;fillColor=#FFE6CC;" parent="1" vertex="1">
          <mxGeometry x="-1060" y="500" width="120" height="60" as="geometry" />
        </mxCell>
        <mxCell id="xacsmnz1SWvq0rgQp3L0-79" value="" style="endArrow=none;html=1;rounded=0;exitX=0.5;exitY=1;exitDx=0;exitDy=0;entryX=0.5;entryY=0;entryDx=0;entryDy=0;" parent="1" source="xacsmnz1SWvq0rgQp3L0-9" target="xacsmnz1SWvq0rgQp3L0-78" edge="1">
          <mxGeometry width="50" height="50" relative="1" as="geometry">
            <mxPoint x="-410" y="670" as="sourcePoint" />
            <mxPoint x="-860" y="420" as="targetPoint" />
          </mxGeometry>
        </mxCell>
        <mxCell id="xacsmnz1SWvq0rgQp3L0-80" value="" style="endArrow=none;html=1;rounded=0;exitX=0.5;exitY=1;exitDx=0;exitDy=0;entryX=0.5;entryY=0;entryDx=0;entryDy=0;" parent="1" source="xacsmnz1SWvq0rgQp3L0-78" target="xacsmnz1SWvq0rgQp3L0-16" edge="1">
          <mxGeometry width="50" height="50" relative="1" as="geometry">
            <mxPoint x="-740" y="419.49" as="sourcePoint" />
            <mxPoint x="-680" y="419.49" as="targetPoint" />
          </mxGeometry>
        </mxCell>
        <mxCell id="xacsmnz1SWvq0rgQp3L0-81" value="Represented By" style="rounded=1;whiteSpace=wrap;html=1;fillColor=#FFE6CC;" parent="1" vertex="1">
          <mxGeometry x="-290" y="500" width="120" height="60" as="geometry" />
        </mxCell>
        <mxCell id="xacsmnz1SWvq0rgQp3L0-82" value="" style="endArrow=none;html=1;rounded=0;entryX=0.5;entryY=0;entryDx=0;entryDy=0;exitX=0.5;exitY=1;exitDx=0;exitDy=0;" parent="1" source="xacsmnz1SWvq0rgQp3L0-15" target="xacsmnz1SWvq0rgQp3L0-81" edge="1">
          <mxGeometry width="50" height="50" relative="1" as="geometry">
            <mxPoint x="-1390" y="180" as="sourcePoint" />
            <mxPoint x="-1340" y="130" as="targetPoint" />
          </mxGeometry>
        </mxCell>
        <mxCell id="xacsmnz1SWvq0rgQp3L0-83" value="" style="endArrow=none;html=1;rounded=0;entryX=0.5;entryY=0;entryDx=0;entryDy=0;exitX=0.5;exitY=1;exitDx=0;exitDy=0;" parent="1" source="xacsmnz1SWvq0rgQp3L0-81" target="xacsmnz1SWvq0rgQp3L0-12" edge="1">
          <mxGeometry width="50" height="50" relative="1" as="geometry">
            <mxPoint x="-1390" y="180" as="sourcePoint" />
            <mxPoint x="-1340" y="130" as="targetPoint" />
          </mxGeometry>
        </mxCell>
        <mxCell id="xacsmnz1SWvq0rgQp3L0-84" value="Uses Secret Key &amp;amp; Timestamp to Generate" style="rounded=1;whiteSpace=wrap;html=1;fillColor=#FFE6CC;" parent="1" vertex="1">
          <mxGeometry x="-1080" y="720" width="160" height="40" as="geometry" />
        </mxCell>
        <mxCell id="xacsmnz1SWvq0rgQp3L0-87" value="Is Fed To" style="rounded=1;whiteSpace=wrap;html=1;fillColor=#FFE6CC;" parent="1" vertex="1">
          <mxGeometry x="-860" y="600" width="120" height="60" as="geometry" />
        </mxCell>
        <mxCell id="xacsmnz1SWvq0rgQp3L0-88" value="Which Uses" style="rounded=1;whiteSpace=wrap;html=1;fillColor=#FFE6CC;" parent="1" vertex="1">
          <mxGeometry x="-860" y="390" width="120" height="60" as="geometry" />
        </mxCell>
        <mxCell id="xacsmnz1SWvq0rgQp3L0-89" value="To Embed the OTP Into a" style="rounded=1;whiteSpace=wrap;html=1;fillColor=#FFE6CC;" parent="1" vertex="1">
          <mxGeometry x="-660" y="500" width="120" height="60" as="geometry" />
        </mxCell>
        <mxCell id="xacsmnz1SWvq0rgQp3L0-98" value="Represented In" style="rounded=1;whiteSpace=wrap;html=1;fillColor=#FFE6CC;" parent="1" vertex="1">
          <mxGeometry x="-1060" y="275" width="120" height="60" as="geometry" />
        </mxCell>
        <mxCell id="xacsmnz1SWvq0rgQp3L0-99" value="Represented In (1+ of these are where we declare RSUs)" style="rounded=1;whiteSpace=wrap;html=1;fillColor=#FFE6CC;" parent="1" vertex="1">
          <mxGeometry x="-290" y="270" width="120" height="60" as="geometry" />
        </mxCell>
        <mxCell id="xacsmnz1SWvq0rgQp3L0-100" value="Chosen Network Sim" style="rounded=0;whiteSpace=wrap;html=1;fillColor=#FF9999;" parent="1" vertex="1">
          <mxGeometry x="-310" y="120" width="160" height="80" as="geometry" />
        </mxCell>
        <mxCell id="xacsmnz1SWvq0rgQp3L0-101" value="Chosen Blockchain Technology" style="rounded=0;whiteSpace=wrap;html=1;fillColor=#FF9999;" parent="1" vertex="1">
          <mxGeometry x="-460" y="940" width="160" height="80" as="geometry" />
        </mxCell>
        <mxCell id="xacsmnz1SWvq0rgQp3L0-103" value="Custom Python Coupling (For Mininet)" style="rounded=0;whiteSpace=wrap;html=1;fillColor=#99FFFF;" parent="1" vertex="1">
          <mxGeometry x="-550" y="40" width="160" height="80" as="geometry" />
        </mxCell>
        <mxCell id="xacsmnz1SWvq0rgQp3L0-114" value="" style="endArrow=none;html=1;rounded=0;entryX=0.5;entryY=1;entryDx=0;entryDy=0;exitX=0.5;exitY=0;exitDx=0;exitDy=0;" parent="1" source="xacsmnz1SWvq0rgQp3L0-84" target="xacsmnz1SWvq0rgQp3L0-16" edge="1">
          <mxGeometry width="50" height="50" relative="1" as="geometry">
            <mxPoint x="-820" y="630" as="sourcePoint" />
            <mxPoint x="-770" y="580" as="targetPoint" />
          </mxGeometry>
        </mxCell>
        <mxCell id="xacsmnz1SWvq0rgQp3L0-115" value="" style="endArrow=none;html=1;rounded=0;entryX=0.5;entryY=1;entryDx=0;entryDy=0;exitX=0.5;exitY=0;exitDx=0;exitDy=0;" parent="1" source="xacsmnz1SWvq0rgQp3L0-89" target="xacsmnz1SWvq0rgQp3L0-3" edge="1">
          <mxGeometry width="50" height="50" relative="1" as="geometry">
            <mxPoint x="-625" y="505" as="sourcePoint" />
            <mxPoint x="-575" y="455" as="targetPoint" />
          </mxGeometry>
        </mxCell>
        <mxCell id="xacsmnz1SWvq0rgQp3L0-116" value="" style="endArrow=none;html=1;rounded=0;entryX=0.5;entryY=1;entryDx=0;entryDy=0;exitX=0.5;exitY=0;exitDx=0;exitDy=0;" parent="1" source="xacsmnz1SWvq0rgQp3L0-11" target="xacsmnz1SWvq0rgQp3L0-88" edge="1">
          <mxGeometry width="50" height="50" relative="1" as="geometry">
            <mxPoint x="-800" y="480" as="sourcePoint" />
            <mxPoint x="-775" y="440" as="targetPoint" />
          </mxGeometry>
        </mxCell>
        <mxCell id="xacsmnz1SWvq0rgQp3L0-117" value="" style="endArrow=none;html=1;rounded=0;exitX=0.5;exitY=0;exitDx=0;exitDy=0;entryX=0.5;entryY=1;entryDx=0;entryDy=0;" parent="1" source="xacsmnz1SWvq0rgQp3L0-87" target="xacsmnz1SWvq0rgQp3L0-11" edge="1">
          <mxGeometry width="50" height="50" relative="1" as="geometry">
            <mxPoint x="-860" y="610" as="sourcePoint" />
            <mxPoint x="-810" y="560" as="targetPoint" />
          </mxGeometry>
        </mxCell>
        <mxCell id="xacsmnz1SWvq0rgQp3L0-118" value="" style="endArrow=none;html=1;rounded=0;exitX=0.5;exitY=0;exitDx=0;exitDy=0;entryX=0.5;entryY=1;entryDx=0;entryDy=0;" parent="1" source="xacsmnz1SWvq0rgQp3L0-37" target="xacsmnz1SWvq0rgQp3L0-87" edge="1">
          <mxGeometry width="50" height="50" relative="1" as="geometry">
            <mxPoint x="-800" y="720" as="sourcePoint" />
            <mxPoint x="-750" y="670" as="targetPoint" />
          </mxGeometry>
        </mxCell>
        <mxCell id="xacsmnz1SWvq0rgQp3L0-119" value="" style="endArrow=none;html=1;rounded=0;exitX=1;exitY=0.5;exitDx=0;exitDy=0;entryX=0;entryY=0.5;entryDx=0;entryDy=0;" parent="1" source="xacsmnz1SWvq0rgQp3L0-84" target="xacsmnz1SWvq0rgQp3L0-37" edge="1">
          <mxGeometry width="50" height="50" relative="1" as="geometry">
            <mxPoint x="-930" y="800" as="sourcePoint" />
            <mxPoint x="-880" y="750" as="targetPoint" />
          </mxGeometry>
        </mxCell>
        <mxCell id="xacsmnz1SWvq0rgQp3L0-120" value="" style="endArrow=none;html=1;rounded=0;entryX=0.5;entryY=1;entryDx=0;entryDy=0;exitX=0.5;exitY=0;exitDx=0;exitDy=0;" parent="1" source="xacsmnz1SWvq0rgQp3L0-14" target="xacsmnz1SWvq0rgQp3L0-89" edge="1">
          <mxGeometry width="50" height="50" relative="1" as="geometry">
            <mxPoint x="-625" y="600" as="sourcePoint" />
            <mxPoint x="-575" y="550" as="targetPoint" />
          </mxGeometry>
        </mxCell>
        <mxCell id="xacsmnz1SWvq0rgQp3L0-121" value="" style="endArrow=none;html=1;rounded=0;entryX=1;entryY=0.5;entryDx=0;entryDy=0;exitX=0;exitY=0.5;exitDx=0;exitDy=0;" parent="1" source="xacsmnz1SWvq0rgQp3L0-3" target="xacsmnz1SWvq0rgQp3L0-88" edge="1">
          <mxGeometry width="50" height="50" relative="1" as="geometry">
            <mxPoint x="-820" y="630" as="sourcePoint" />
            <mxPoint x="-770" y="580" as="targetPoint" />
          </mxGeometry>
        </mxCell>
        <mxCell id="xacsmnz1SWvq0rgQp3L0-122" value="" style="endArrow=none;html=1;rounded=0;entryX=0;entryY=0.25;entryDx=0;entryDy=0;exitX=1;exitY=0.5;exitDx=0;exitDy=0;" parent="1" source="xacsmnz1SWvq0rgQp3L0-103" target="xacsmnz1SWvq0rgQp3L0-100" edge="1">
          <mxGeometry width="50" height="50" relative="1" as="geometry">
            <mxPoint x="-380" y="185" as="sourcePoint" />
            <mxPoint x="-330" y="135" as="targetPoint" />
            <Array as="points">
              <mxPoint x="-350" y="80" />
              <mxPoint x="-350" y="140" />
            </Array>
          </mxGeometry>
        </mxCell>
        <mxCell id="xacsmnz1SWvq0rgQp3L0-123" value="" style="endArrow=none;html=1;rounded=0;entryX=0;entryY=0.5;entryDx=0;entryDy=0;exitX=1;exitY=0.25;exitDx=0;exitDy=0;" parent="1" source="xacsmnz1SWvq0rgQp3L0-57" target="xacsmnz1SWvq0rgQp3L0-103" edge="1">
          <mxGeometry width="50" height="50" relative="1" as="geometry">
            <mxPoint x="-610" y="190" as="sourcePoint" />
            <mxPoint x="-560" y="140" as="targetPoint" />
            <Array as="points">
              <mxPoint x="-590" y="140" />
              <mxPoint x="-590" y="80" />
            </Array>
          </mxGeometry>
        </mxCell>
        <mxCell id="xacsmnz1SWvq0rgQp3L0-124" value="" style="endArrow=none;html=1;rounded=0;entryX=0;entryY=0.5;entryDx=0;entryDy=0;exitX=1;exitY=0.5;exitDx=0;exitDy=0;" parent="1" source="xacsmnz1SWvq0rgQp3L0-98" target="xacsmnz1SWvq0rgQp3L0-57" edge="1">
          <mxGeometry width="50" height="50" relative="1" as="geometry">
            <mxPoint x="-870" y="260" as="sourcePoint" />
            <mxPoint x="-820" y="210" as="targetPoint" />
            <Array as="points">
              <mxPoint x="-840" y="305" />
              <mxPoint x="-840" y="160" />
            </Array>
          </mxGeometry>
        </mxCell>
        <mxCell id="xacsmnz1SWvq0rgQp3L0-125" value="" style="endArrow=none;html=1;rounded=0;entryX=0.5;entryY=1;entryDx=0;entryDy=0;exitX=0.5;exitY=0;exitDx=0;exitDy=0;" parent="1" source="xacsmnz1SWvq0rgQp3L0-9" target="xacsmnz1SWvq0rgQp3L0-98" edge="1">
          <mxGeometry width="50" height="50" relative="1" as="geometry">
            <mxPoint x="-970" y="390" as="sourcePoint" />
            <mxPoint x="-920" y="340" as="targetPoint" />
          </mxGeometry>
        </mxCell>
        <mxCell id="xacsmnz1SWvq0rgQp3L0-126" value="" style="endArrow=none;html=1;rounded=0;entryX=0.5;entryY=1;entryDx=0;entryDy=0;exitX=0.5;exitY=0;exitDx=0;exitDy=0;" parent="1" source="xacsmnz1SWvq0rgQp3L0-99" target="xacsmnz1SWvq0rgQp3L0-100" edge="1">
          <mxGeometry width="50" height="50" relative="1" as="geometry">
            <mxPoint x="-250" y="265" as="sourcePoint" />
            <mxPoint x="-200" y="215" as="targetPoint" />
          </mxGeometry>
        </mxCell>
        <mxCell id="xacsmnz1SWvq0rgQp3L0-127" value="" style="endArrow=none;html=1;rounded=0;entryX=0.5;entryY=1;entryDx=0;entryDy=0;exitX=0.5;exitY=0;exitDx=0;exitDy=0;" parent="1" source="xacsmnz1SWvq0rgQp3L0-15" target="xacsmnz1SWvq0rgQp3L0-99" edge="1">
          <mxGeometry width="50" height="50" relative="1" as="geometry">
            <mxPoint x="-360" y="380" as="sourcePoint" />
            <mxPoint x="-310" y="330" as="targetPoint" />
            <Array as="points">
              <mxPoint x="-230" y="350" />
            </Array>
          </mxGeometry>
        </mxCell>
        <mxCell id="xacsmnz1SWvq0rgQp3L0-129" value="" style="endArrow=none;html=1;rounded=0;entryX=0;entryY=0.5;entryDx=0;entryDy=0;exitX=0.5;exitY=1;exitDx=0;exitDy=0;" parent="1" source="xacsmnz1SWvq0rgQp3L0-57" target="xacsmnz1SWvq0rgQp3L0-99" edge="1">
          <mxGeometry width="50" height="50" relative="1" as="geometry">
            <mxPoint x="-550" y="350" as="sourcePoint" />
            <mxPoint x="-500" y="300" as="targetPoint" />
            <Array as="points">
              <mxPoint x="-710" y="300" />
            </Array>
          </mxGeometry>
        </mxCell>
        <mxCell id="xacsmnz1SWvq0rgQp3L0-131" value="" style="rounded=0;whiteSpace=wrap;html=1;" parent="1" vertex="1">
          <mxGeometry x="-1100" y="45" width="240" height="200" as="geometry" />
        </mxCell>
        <mxCell id="xacsmnz1SWvq0rgQp3L0-132" value="" style="whiteSpace=wrap;html=1;aspect=fixed;fillColor=#99FFFF;" parent="1" vertex="1">
          <mxGeometry x="-1090" y="80" width="20" height="20" as="geometry" />
        </mxCell>
        <mxCell id="xacsmnz1SWvq0rgQp3L0-133" value="Custom Python Script" style="text;html=1;align=center;verticalAlign=middle;whiteSpace=wrap;rounded=0;" parent="1" vertex="1">
          <mxGeometry x="-1060" y="75" width="120" height="30" as="geometry" />
        </mxCell>
        <mxCell id="xacsmnz1SWvq0rgQp3L0-134" value="&lt;b&gt;&lt;font style=&quot;font-size: 14px;&quot;&gt;&lt;u&gt;Key&lt;/u&gt;&lt;/font&gt;&lt;/b&gt;" style="text;html=1;align=center;verticalAlign=middle;whiteSpace=wrap;rounded=0;" parent="1" vertex="1">
          <mxGeometry x="-1050" y="55" width="60" height="20" as="geometry" />
        </mxCell>
        <mxCell id="xacsmnz1SWvq0rgQp3L0-135" value="" style="whiteSpace=wrap;html=1;aspect=fixed;fillColor=#FF9999;" parent="1" vertex="1">
          <mxGeometry x="-1090" y="110" width="20" height="20" as="geometry" />
        </mxCell>
        <mxCell id="xacsmnz1SWvq0rgQp3L0-136" value="Software" style="text;html=1;align=center;verticalAlign=middle;whiteSpace=wrap;rounded=0;" parent="1" vertex="1">
          <mxGeometry x="-1070" y="105" width="70" height="30" as="geometry" />
        </mxCell>
        <mxCell id="xacsmnz1SWvq0rgQp3L0-140" value="" style="whiteSpace=wrap;html=1;aspect=fixed;fillColor=#A680B8;" parent="1" vertex="1">
          <mxGeometry x="-1090" y="140" width="20" height="20" as="geometry" />
        </mxCell>
        <mxCell id="xacsmnz1SWvq0rgQp3L0-141" value="Entities @ the Real World Level" style="text;html=1;align=center;verticalAlign=middle;whiteSpace=wrap;rounded=0;" parent="1" vertex="1">
          <mxGeometry x="-1060" y="135" width="180" height="30" as="geometry" />
        </mxCell>
        <mxCell id="xacsmnz1SWvq0rgQp3L0-142" value="" style="whiteSpace=wrap;html=1;aspect=fixed;fillColor=#99FF99;" parent="1" vertex="1">
          <mxGeometry x="-1090" y="175" width="20" height="20" as="geometry" />
        </mxCell>
        <mxCell id="xacsmnz1SWvq0rgQp3L0-143" value="Detailed Interaction Bubbles" style="text;html=1;align=center;verticalAlign=middle;whiteSpace=wrap;rounded=0;" parent="1" vertex="1">
          <mxGeometry x="-1060" y="200" width="160" height="30" as="geometry" />
        </mxCell>
        <mxCell id="xacsmnz1SWvq0rgQp3L0-144" value="" style="whiteSpace=wrap;html=1;aspect=fixed;fillColor=#FFE6CC;" parent="1" vertex="1">
          <mxGeometry x="-1090" y="205" width="20" height="20" as="geometry" />
        </mxCell>
        <mxCell id="xacsmnz1SWvq0rgQp3L0-145" value="Interium Entities" style="text;html=1;align=center;verticalAlign=middle;whiteSpace=wrap;rounded=0;" parent="1" vertex="1">
          <mxGeometry x="-1060" y="170" width="90" height="30" as="geometry" />
        </mxCell>
        <mxCell id="xacsmnz1SWvq0rgQp3L0-146" value="Veins" style="rounded=0;whiteSpace=wrap;html=1;fillColor=#FF9999;" parent="1" vertex="1">
          <mxGeometry x="-550" y="180" width="160" height="80" as="geometry" />
        </mxCell>
        <mxCell id="xacsmnz1SWvq0rgQp3L0-147" value="" style="endArrow=none;html=1;rounded=0;entryX=0;entryY=0.75;entryDx=0;entryDy=0;exitX=1;exitY=0.5;exitDx=0;exitDy=0;" parent="1" source="xacsmnz1SWvq0rgQp3L0-146" target="xacsmnz1SWvq0rgQp3L0-100" edge="1">
          <mxGeometry width="50" height="50" relative="1" as="geometry">
            <mxPoint x="-370" y="250" as="sourcePoint" />
            <mxPoint x="-320" y="200" as="targetPoint" />
            <Array as="points">
              <mxPoint x="-350" y="220" />
              <mxPoint x="-350" y="180" />
            </Array>
          </mxGeometry>
        </mxCell>
        <mxCell id="xacsmnz1SWvq0rgQp3L0-148" value="" style="endArrow=none;html=1;rounded=0;exitX=1;exitY=0.75;exitDx=0;exitDy=0;entryX=0;entryY=0.75;entryDx=0;entryDy=0;" parent="1" source="xacsmnz1SWvq0rgQp3L0-57" target="xacsmnz1SWvq0rgQp3L0-146" edge="1">
          <mxGeometry width="50" height="50" relative="1" as="geometry">
            <mxPoint x="-620" y="185" as="sourcePoint" />
            <mxPoint x="-570" y="135" as="targetPoint" />
            <Array as="points">
              <mxPoint x="-590" y="180" />
              <mxPoint x="-590" y="240" />
            </Array>
          </mxGeometry>
        </mxCell>
        <mxCell id="xacsmnz1SWvq0rgQp3L0-149" value="Blockchain; Need to Be more certain on some details before I hook it up to system" style="rounded=0;whiteSpace=wrap;html=1;fillColor=#FFFFFF;" parent="1" vertex="1">
          <mxGeometry x="-720" y="900" width="650" height="160" as="geometry" />
        </mxCell>
      </root>
    </mxGraphModel>
  </diagram>
</mxfile>
